<svg version="1.1" xmlns="http://www.w3.org/2000/svg" viewBox="0 0 62.63776168776724 49.702710389231015" width="125.27552337553448" height="99.40542077846203">
  <!-- svg-source:excalidraw -->
  
  <defs>
    <style class="style-fonts">
      @font-face {
        font-family: "Virgil";
        src: url("https://excalidraw.com/Virgil.woff2");
      }
      @font-face {
        font-family: "Cascadia";
        src: url("https://excalidraw.com/Cascadia.woff2");
      }
    </style>
    
  </defs>
  <g stroke-linecap="round" transform="translate(10 10) rotate(0 19.16303896079421 14.372279220595658)"><path d="M0.21 14.76 C0.21 14.76, 0.21 14.76, 0.21 14.76 M0.21 14.76 C0.21 14.76, 0.21 14.76, 0.21 14.76 M6.9 19.25 C12.42 12.91, 17.94 6.56, 21.99 1.89 M6.9 19.25 C12.16 13.2, 17.42 7.15, 21.99 1.89 M13.6 23.75 C19.06 17.47, 24.51 11.19, 28.03 7.14 M13.6 23.75 C17.72 19, 21.85 14.26, 28.03 7.14 M19.64 28.99 C23.73 24.28, 27.83 19.57, 34.72 11.64 M19.64 28.99 C24.55 23.34, 29.47 17.69, 34.72 11.64" stroke="#f08c00" stroke-width="1" fill="none"></path><path d="M20 0 C26.26 5.12, 32.52 10.24, 38.33 15 M20 0 C26.5 5.32, 32.99 10.64, 38.33 15 M38.33 15 C31.49 20.13, 24.66 25.25, 20 28.74 M38.33 15 C33.97 18.27, 29.62 21.53, 20 28.74 M20 28.74 C13.18 24.05, 6.35 19.37, 0 15 M20 28.74 C12.75 23.76, 5.49 18.77, 0 15 M0 15 C6.66 10, 13.33 5, 20 0 M0 15 C5.81 10.65, 11.61 6.29, 20 0" stroke="#f08c00" stroke-width="2" fill="none"></path></g><g stroke-linecap="round" transform="translate(10.9581519480397 10) rotate(0 6.227987662258101 3.832607792158825)"><path d="M7 0 C8.91 1.4, 10.83 2.81, 12.46 4 M7 0 C8.15 0.84, 9.3 1.69, 12.46 4 M12.46 4 C10.33 5.43, 8.2 6.86, 7 7.67 M12.46 4 C10.31 5.44, 8.16 6.89, 7 7.67 M7 7.67 C4.64 6.43, 2.28 5.19, 0 4 M7 7.67 C5.21 6.73, 3.41 5.79, 0 4 M0 4 C2.54 2.55, 5.08 1.09, 7 0 M0 4 C2.18 2.75, 4.36 1.51, 7 0" stroke="#1e1e1e" stroke-width="2" fill="none"></path></g><g stroke-linecap="round" transform="translate(13.353531818139004 32.03749480491331) rotate(0 6.4675256492681115 3.8326077921588535)"><path d="M7 0 C9.1 1.42, 11.21 2.84, 12.94 4 M7 0 C8.86 1.25, 10.71 2.5, 12.94 4 M12.94 4 C10.82 5.31, 8.71 6.61, 7 7.67 M12.94 4 C11.11 5.13, 9.29 6.25, 7 7.67 M7 7.67 C5.5 6.88, 3.99 6.09, 0 4 M7 7.67 C4.96 6.59, 2.91 5.52, 0 4 M0 4 C1.56 3.11, 3.12 2.22, 7 0 M0 4 C1.91 2.91, 3.83 1.81, 7 0" stroke="#1e1e1e" stroke-width="2" fill="none"></path></g><g stroke-linecap="round"><g transform="translate(42.098090259330434 24.851355194615508) rotate(0 5.269835714218402 0)"><path d="M0 0 C2.89 0, 5.77 0, 10.54 0 M0 0 C2.62 0, 5.23 0, 10.54 0" stroke="#1e1e1e" stroke-width="2" fill="none"></path></g></g><mask></mask></svg>