<svg version="1.1" xmlns="http://www.w3.org/2000/svg" viewBox="0 0 61.679609739727425 49.702710389231015" width="123.35921947945485" height="99.40542077846203">
  <!-- svg-source:excalidraw -->
  
  <defs>
    <style class="style-fonts">
      @font-face {
        font-family: "Virgil";
        src: url("https://excalidraw.com/Virgil.woff2");
      }
      @font-face {
        font-family: "Cascadia";
        src: url("https://excalidraw.com/Cascadia.woff2");
      }
    </style>
    
  </defs>
  <g stroke-linecap="round" transform="translate(10 10) rotate(0 19.16303896079421 14.372279220595658)"><path d="M20 0 C26.26 5.12, 32.52 10.24, 38.33 15 M20 0 C26.5 5.32, 32.99 10.64, 38.33 15 M38.33 15 C31.49 20.13, 24.66 25.25, 20 28.74 M38.33 15 C33.97 18.27, 29.62 21.53, 20 28.74 M20 28.74 C13.18 24.05, 6.35 19.37, 0 15 M20 28.74 C12.75 23.76, 5.49 18.77, 0 15 M0 15 C6.66 10, 13.33 5, 20 0 M0 15 C5.81 10.65, 11.61 6.29, 20 0" stroke="#1e1e1e" stroke-width="2" fill="none"></path></g><g stroke-linecap="round" transform="translate(10.9581519480397 10) rotate(0 6.227987662258101 3.832607792158825)"><path d="M7 0 C8.91 1.4, 10.83 2.81, 12.46 4 M7 0 C8.15 0.84, 9.3 1.69, 12.46 4 M12.46 4 C10.33 5.43, 8.2 6.86, 7 7.67 M12.46 4 C10.31 5.44, 8.16 6.89, 7 7.67 M7 7.67 C4.64 6.43, 2.28 5.19, 0 4 M7 7.67 C5.21 6.73, 3.41 5.79, 0 4 M0 4 C2.54 2.55, 5.08 1.09, 7 0 M0 4 C2.18 2.75, 4.36 1.51, 7 0" stroke="#1e1e1e" stroke-width="2" fill="none"></path></g><g stroke-linecap="round" transform="translate(13.353531818139004 32.03749480491331) rotate(0 6.4675256492681115 3.8326077921588535)"><path d="M7 0 C9.1 1.42, 11.21 2.84, 12.94 4 M7 0 C8.86 1.25, 10.71 2.5, 12.94 4 M12.94 4 C10.82 5.31, 8.71 6.61, 7 7.67 M12.94 4 C11.11 5.13, 9.29 6.25, 7 7.67 M7 7.67 C5.5 6.88, 3.99 6.09, 0 4 M7 7.67 C4.96 6.59, 2.91 5.52, 0 4 M0 4 C1.56 3.11, 3.12 2.22, 7 0 M0 4 C1.91 2.91, 3.83 1.81, 7 0" stroke="#1e1e1e" stroke-width="2" fill="none"></path></g><g stroke-linecap="round" transform="translate(47.36792597354872 24.851355194615508) rotate(0 2.1558418830893515 0.2395379870099248)"><path d="M0 0 C1.37 0, 2.74 0, 4.31 0 M0 0 C1.01 0, 2.03 0, 4.31 0 M4.31 0 C4.31 0.1, 4.31 0.2, 4.31 0.48 M4.31 0 C4.31 0.13, 4.31 0.27, 4.31 0.48 M4.31 0.48 C2.68 0.48, 1.05 0.48, 0 0.48 M4.31 0.48 C3.32 0.48, 2.32 0.48, 0 0.48 M0 0.48 C0 0.32, 0 0.17, 0 0 M0 0.48 C0 0.37, 0 0.27, 0 0" stroke="#2f9e44" stroke-width="2" fill="none"></path></g></svg>